<?xml version="1.0" encoding="UTF-8"?>
<svg id="Camada_2" data-name="Camada 2" xmlns="http://www.w3.org/2000/svg" viewBox="0 0 209.74138 202.63598">
  <g id="Camada_1-2" data-name="Camada 1">
    <g>
      <path d="M111.8232,195.80991c2.21727,0,4.16556-.00005,6.11383.00002,27.98596.00092,55.97192-.00212,83.95789.01271,1.66048.00089,3.44594-.20329,4.94138.33369,1.17598.42229,2.93582,2.06728,2.76762,2.76926-.3143,1.31163-1.65198,2.68088-2.92041,3.36674-1.0441.56454-2.60385.20461-3.93507.20471-63.13499.00482-126.27.00447-189.405.00246-1.16582-.00003-2.58011.38393-3.44059-.136-1.37307-.82962-2.37784-2.26881-3.53832-3.45029,1.19138-1.16248,2.2157-2.64572,3.62913-3.38181,1.05331-.54854,2.60998-.14127,3.94247-.14137,28.15255-.0023,56.30509-.00197,84.45764-.00217,1.81255-.00002,3.62509-.00002,6.17343-.00002,0-2.26361,0-4.19276.00002-6.12193.00009-37.4812.05786-74.96262-.08197-112.4433-.01529-4.10059,1.10387-6.59602,4.73807-8.839,30.461-18.80008,60.78279-37.82571,91.15031-56.7773,1.41162-.88097,2.78598-2.17684,4.31197-2.41343,1.36159-.21111,3.54347.36292,4.19362,1.35617.6301.96259.17593,3.14799-.5509,4.33954-.70822,1.16103-2.33969,1.78391-3.60872,2.57417-29.67934,18.48228-59.34924,36.97986-89.07402,55.38879-2.74454,1.69972-4.26907,3.36599-4.25269,6.99625.16762,37.1473.09807,74.29566.11278,111.44372.00058,1.45189.18242,2.90372.31755,4.91838Z" style="fill: #000; stroke-width: 0px;"/>
      <path d="M170.10167,99.99579c1.74756.79022,3.28731,1.40721,4.75499,2.16397,6.0657,3.12756,9.5863,8.12025,10.55048,14.85155.5452,3.80615-.72037,5.55528-4.37999,5.60327-9.66394.1268-19.33069.04634-28.99631.03818-3.15814-.00266-4.57367-1.66823-4.32445-4.7462.56859-7.02264,3.99663-12.22734,10.15964-15.59802,1.45168-.79396,3.03058-1.35526,4.79739-2.13191v-44.64442c-.98943.32795-1.92682.45981-2.66966.91158-12.09599,7.35613-24.14542,14.78911-36.26534,22.10536-2.0797,1.25542-2.92593,2.69507-2.91963,5.18896.08287,32.82991.05405,65.66013.06857,98.49025.00043.95706.16901,1.91406.30751,3.38393,2.01692,0,3.8036-.00002,5.59029,0,25.16405.0004,50.32809-.0032,75.49214.00436,5.44244.00163,7.76112,1.15665,7.27451,3.83817-.78239,4.31114-4.40314,3.29631-7.2321,3.30157-27.16393.05057-54.32797.03793-81.49199.02469-6.61928-.00323-7.07037-.46826-7.07184-7.1319-.00757-34.66328.04768-69.32675-.07605-103.9896-.01349-3.78236,1.1711-6.07214,4.44165-8.0602,27.75313-16.8701,55.39943-33.91589,83.10808-50.85941,2.41916-1.47928,5.02562-4.16856,7.81316-.62007,1.64967,2.09995.44971,4.06025-3.92043,6.74445-10.50208,6.45052-21.05641,12.81758-31.48273,19.388-1.48148.93358-3.35385,2.79817-3.37625,4.25747-.24272,15.81403-.15164,31.63316-.15164,47.48598ZM156.06741,115.25957h21.18697c-1.92419-5.28563-5.25325-7.78107-10.26001-7.85544-5.20297-.07729-8.72691,2.39244-10.92696,7.85544Z" style="fill: #000; stroke-width: 0px;"/>
      <path d="M62.08826,45.42104c.03613,9.22977-7.12299,16.59138-16.277,16.73739-9.12653.14556-16.94685-7.63818-16.87345-16.79453.07291-9.0972,7.47911-16.38047,16.6524-16.37602,9.2247.00447,16.46198,7.21328,16.49805,16.43316ZM45.79052,36.19925c-5.28436-.10331-9.60196,4.01804-9.66454,9.22525-.06174,5.13914,4.29473,9.52056,9.4598,9.51395,5.00607-.00642,9.15985-4.04231,9.32632-9.06161.17675-5.32889-3.8245-9.57403-9.12159-9.67759Z" style="fill: #000; stroke-width: 0px;"/>
      <path d="M34.15331,61.02805c-.6627,1.14951-.9426,1.97614-1.49336,2.53658-4.53494,4.61469-9.08199,9.21905-13.7094,13.74052-1.79126,1.75026-4.00206,1.97734-5.71216.04154-1.60683-1.81889-.76816-3.70662.80626-5.27903,4.34387-4.33828,8.56754-8.80857,13.10958-12.92806,1.05652-.95823,3.24871-1.12305,4.80476-.89106.86401.12882,1.4933,1.83197,2.19432,2.7795Z" style="fill: #000; stroke-width: 0px;"/>
      <path d="M79.36739,74.87515c-.50404.71013-.98112,2.12748-1.81794,2.3876-1.27387.396-3.33556.56844-4.12666-.16872-5.09772-4.75001-10.02588-9.69415-14.77177-14.79591-.67945-.73039-.62141-3.23915.06923-3.8876.95975-.90113,3.57689-1.62138,4.21021-1.0373,5.47237,5.04691,10.66715,10.39565,15.9077,15.691.30341.30659.2858.9309.52923,1.81092Z" style="fill: #000; stroke-width: 0px;"/>
      <path d="M78.10467,41.30293c2.97722.00169,5.95454.01781,8.93162-.00327,2.49748-.01768,4.62675,1.08556,4.23918,3.59034-.20689,1.3371-2.49551,3.25699-3.93694,3.34164-6.26353.36783-12.56108.17215-18.84615.14928-2.28134-.0083-3.97968-1.06621-4.06116-3.43024-.09338-2.70921,1.73197-3.67779,4.24561-3.65599,3.1424.02724,6.28522.00655,9.42785.00825Z" style="fill: #000; stroke-width: 0px;"/>
      <path d="M49.06149,78.38513c-.00147,2.99535.04614,5.99168-.01701,8.98568-.04783,2.26796-1.05797,3.99072-3.524,3.95042-2.42601-.03963-3.51168-1.78314-3.53667-4.01838-.07071-6.3226-.07478-12.6473.01081-18.9696.03028-2.23672,1.13873-3.93616,3.59698-3.9374,2.51763-.00127,3.41559,1.76664,3.45586,4.00504.05987,3.32709.01551,6.65606.01404,9.98424Z" style="fill: #000; stroke-width: 0px;"/>
      <path d="M49.06699,13.66057c.00054,2.99793.00979,5.99589-.00231,8.99376-.01008,2.49729-1.03117,4.39512-3.72639,4.28386-2.37091-.09787-3.36784-1.90965-3.37626-4.1796-.02288-6.16236-.03791-12.32505.0029-18.48722.01635-2.46886,1.08627-4.3534,3.78725-4.26862,2.45153.07695,3.31129,1.89542,3.3135,4.16441.00308,3.16447.00078,6.32894.00132,9.49342Z" style="fill: #000; stroke-width: 0px;"/>
      <path d="M16.4085,11.09773c1.38909,1.01833,2.5452,1.67383,3.46363,2.57229,4.04243,3.95452,8.01173,7.98373,12.01707,11.9763,1.77409,1.76844,3.27813,3.79992,1.02249,5.97825-2.07663,2.00545-4.26859,1.0643-6.10731-.81598-4.18633-4.28094-8.492-8.45361-12.49316-12.90063-.88791-.98685-1.1562-3.01332-.88032-4.39555.18377-.92069,1.83866-1.54776,2.97759-2.41469Z" style="fill: #000; stroke-width: 0px;"/>
      <path d="M60.98901,33.60094c-.74429-.55114-2.18212-1.09687-2.61856-2.08493-.43678-.98882-.34815-2.86983.32872-3.5845,4.79347-5.06108,9.70256-10.02626,14.83753-14.73552.7626-.69937,3.26512-.38031,4.29403.37657.77763.57204,1.16766,3.22986.56773,3.87014-4.98616,5.3214-10.23443,10.39787-15.43782,15.51344-.31222.30695-.91843.31486-1.97163.6448Z" style="fill: #000; stroke-width: 0px;"/>
      <path d="M13.67338,41.30467c2.99491-.00342,5.98984-.00858,8.98473-.00182,2.49695.00563,4.35791.96301,4.23849,3.72195-.10593,2.44724-1.922,3.34755-4.15722,3.35964-6.156.0333-12.31238.02966-18.46844.00259-2.48301-.01091-4.37698-1.08897-4.26632-3.75964.09816-2.36913,1.89709-3.32405,4.18498-3.32053,3.16126.00485,6.32252.00121,9.48378-.0022Z" style="fill: #000; stroke-width: 0px;"/>
      <path d="M191.99815,138.43825c-.42119.59438-.88953,1.98854-1.72374,2.26051-1.24741.40671-3.25034.59087-4.06111-.12143-3.46069-3.04042-6.73265-6.33104-9.75276-9.80887-.63356-.7296-.33469-2.91457.32004-3.9146.53117-.81126,2.85973-1.54436,3.32996-1.12428,4.01564,3.5873,7.79475,7.43997,11.61742,11.24063.18994.18883.12776.63123.2702,1.46803Z" style="fill: #000; stroke-width: 0px;"/>
      <path d="M145.01016,141.39911c-3.18184-.14064-4.94926-3.15268-3.11591-5.30865,2.98694-3.51259,6.32875-6.7679,9.8385-9.759.83765-.71388,3.24333-.43553,4.33978.28334.80612.5285,1.35704,3.13585.81248,3.75748-3.25047,3.71043-6.82994,7.13597-10.36647,10.58797-.40656.39687-1.23116.36543-1.50839.43887Z" style="fill: #000; stroke-width: 0px;"/>
      <path d="M169.99986,134.4261c.00087,1.81339.4626,3.80167-.13829,5.38724-.52545,1.38646-2.12697,2.97728-3.48067,3.22273-.90392.16389-3.04634-1.77802-3.17615-2.9404-.41821-3.74467-.41916-7.59319-.00906-11.33907.1266-1.15656,2.27052-3.09993,3.15872-2.93155,1.36555.25891,2.97464,1.82832,3.50461,3.21471.6048,1.58205.13997,3.573.14084,5.38634Z" style="fill: #000; stroke-width: 0px;"/>
    </g>
  </g>
</svg>