<?xml version="1.0" encoding="UTF-8"?>
<svg id="Camada_2" data-name="Camada 2" xmlns="http://www.w3.org/2000/svg" viewBox="0 0 235.03929 224.20099">
  <g id="Camada_1-2" data-name="Camada 1">
    <g>
      <path d="M12.87346,144.72721v-61.23859c-1.92228-.44652-3.81522-.79947-5.65575-1.33315-3.12082-.90492-4.32734-3.08704-4.29537-6.29802.08628-8.66522.02806-17.33189.02758-25.99799-.0001-1.66656-.04647-3.3348.01181-4.99934.15399-4.39738,2.28807-6.50803,6.77085-6.75317.49849-.02725,1.00179.02376,1.49911-.01263.47129-.03449.93767-.13615,1.76441-.2634,0-1.49187-.00006-2.95425,0-4.41662.00041-8.33278.06133-16.66624-.03191-24.99798-.03214-2.87189.99445-5.08511,3.05546-6.98684C17.06076.46882,18.15083-.07534,19.58642.00907c1.1623.06834,2.33226.00261,3.49883.0026,58.9961-.0006,117.99221-.00053,176.98832-.00037.99992,0,2.00117-.03074,2.99954.0092,3.00752.12033,4.59322,1.40993,4.84993,4.43155.22485,2.64687.14816,5.33466-.00058,7.99289-.11023,1.97017-1.88467,3.50555-3.96852,3.67658-1.15929.09514-2.33165.03753-3.49811.03763-16.33226.00145-32.66451.00098-48.99677.00098h-4.90623c-1.54483,6.79258-1.69618,6.91047-9.04546,7.10286-.96918,1.81831-.85721,3.15696,1.24464,4.31635,2.29814,1.26765,3.1338,3.82378,4.03319,6.07966,1.11763,2.80327-.16367,4.45483-3.23865,4.49005-5.66554.06489-11.3423-.18381-16.99496.09366-3.39664.16673-4.25882-2.61474-3.0954-4.96774.99866-2.01974,1.88773-4.18335,4.01123-5.38647,1.79688-1.01807,1.80479-2.56518,1.36469-4.35468-2.13452-.96545-4.58066.24886-6.68588-1.32858-2.04539-1.5326-1.89314-3.6179-2.33859-5.86198h-20.64572c.06172,2.22274-.75172,4.19743-2.60674,5.83302-1.90979,1.68388-4.20253.38229-6.44749,1.33464-.10149,1.42786-.7818,2.80448,1.42757,3.89164,2.50414,1.23219,3.36349,4.03333,4.30605,6.45035.98003,2.51308-.35829,4.2038-3.12228,4.23962-5.83195.07558-11.66623.07408-17.49825.00057-2.76392-.03484-4.08588-1.71517-3.09511-4.24969.94403-2.4149,1.80602-5.21774,4.31221-6.43965,1.92335-.93774,1.60285-2.21329,1.45815-4.00411-4.45547-.21195-9.15424-.47446-9.0022-7.05384h-25.49063c-.01419.01228-.16503.10368-.25895.23559-.0872.12249-.16004.28817-.16021.43492-.00765,6.82858-.00665,13.65717-.00665,20.78079,1.09581.11549,2.24867.07262,3.30019.37831,3.30172.95988,4.78628,2.97896,4.79761,6.54311.03284,10.33254.03279,20.66533.00243,30.99789-.01471,5.00414-1.40524,6.47648-6.63634,7.29877-.45752.07191-.89881.24709-1.525.42457v4.00824c.00002,25.99829.00574,51.99657-.00987,77.99486-.00137,2.29582-.17167,4.599,1.6968,6.48674,1.44989-3.37375,3.09461-6.57497,5.93918-9.01436,4.77536-4.09518,9.71157-7.1351,16.50006-5.02713,3.54327,1.10025,7.15542-.71278,10.76394-.86916.86633-.03755,1.7411-1.384,2.59258-.08507.60431.92189,1.48477,1.90125,1.54613,2.8978.2227,3.61757-.08711,7.10773-1.60608,10.60391-4.70576,10.83127-15.98312,16.99295-27.62302,15.57462-1.11297-.1356-2.172-.66917-3.27716-.92787-.85694-.20058-1.95331-.63965-2.57715-.30011-1.13705.61888-1.88639,1.69806-1.84151,3.26564.10937,3.81929.03563,7.6438.03563,11.55835,3.97878,2.05751,7.89902,2.22781,11.93613.47229,3.15781-1.37314,6.2301-1.912,9.27789.51231.79163.62968,2.19292.4632,3.29592.73622,4.96409,1.22881,9.96622,1.91832,15.11292,1.88313,2.98595-.02045,5.20767-1.85294,7.90161-2.52776,2.50482-.62749,4.86519-1.88667,7.23564-2.98341,4.22113-1.95296,8.45584-2.35794,12.86324-.6134,1.47878.58531,3.08789.84128,5.0197,1.34807.1091-1.53381.25323-2.64195.25621-3.75049.02016-7.49945.01045-14.99898.01045-22.49849,0-.83328.06154-1.67197-.01155-2.49878-.18782-2.12483-1.3452-3.00746-3.29312-2.49985-.46416.12094-.83408.64044-1.2953.73021-9.27911,1.80589-17.2663-.37204-24.28191-6.99602-5.01947-4.73924-6.87836-10.64326-7.89415-17.01123-.23285-1.45975.68927-3.10373,1.14267-4.91374,1.79758.07869,3.52458-.16939,5.04149.28458,3.7574,1.12447,7.37508.97813,11.15236.05116,3.49872-.8586,6.96088.31554,9.90517,2.00209,3.85454,2.20793,7.4884,4.93297,9.20918,9.54666.61208-3.08983.4623-6.18701.35364-9.25143-.02924-.82422-.83357-1.75366-1.50688-2.40103-4.82468-4.63884-7.08125-10.2979-6.46236-16.9247.46579-4.98723,2.04608-9.37296,6.46416-12.64223,2.85696-2.11407,4.9232-5.30687,7.29562-8.05779.52545-.60927.76125-1.46645,1.28018-2.08354,1.57001-1.86694,2.63142-1.91536,4.57784-.23221,5.52979,4.78185,8.26523,10.7787,8.47966,18.15056.18039,6.20117-1.45622,11.62682-5.07277,16.61696-1.79355,2.47478-3.83884,4.67369-6.60352,5.82289-2.81963,1.17204-3.453,3.05484-3.40611,5.83638.12897,7.64963.04454,15.30284.04454,23.65329,1.12453-1.14288,2.01108-1.76532,2.52707-2.61327,3.53198-5.80434,8.86787-8.62141,15.43321-9.13763,2.55081-.20058,5.15829.46278,7.73853.44957,2.27501-.01163,4.51962.13152,6.83385-.7518,2.90654-1.10939,4.12514.19064,4.46747,3.31107,1.42851,13.02135-10.25282,23.11929-19.77066,25.55493-4.20549,1.07619-8.06206.61948-12.03864-.4216-.62639-.164-1.20435-.53766-1.83455-.65778-1.80266-.3436-2.48029.14894-2.51106,1.96257-.0591,3.48378-.01721,6.96928-.01721,10.33124.49911.27051.82536.60396,1.04955.54556,4.0376-1.0517,7.98581-.62276,12.06505.06685,2.83876.47989,5.86024.29857,8.80763-.73355,1.79623-.62901,3.96341-.29408,5.9597-.23853,5.93776.16522,11.86217-.46028,17.82002.83197,3.62766.78683,7.51166.36687,11.19501-1.07658,3.16519-1.2404,6.59299-1.81314,9.75188-3.06622,2.14703-.85165,4.05975-.71928,6.39906.10086,0-6.94017.03258-13.74652-.03819-20.55179-.00964-.92766-.61208-1.83426-.8054-2.7782-.33679-1.64444-1.41597-1.71852-2.61304-1.21808-9.13914,3.82059-17.05255.65216-24.22926-4.74374-4.23892-3.18709-7.18462-7.68942-8.26715-13.07187-.48134-2.39326-.93134-4.86531-.8419-7.2811.09468-2.55789,1.33046-3.32367,3.94185-3.14389.97237.06694,1.9248.43411,2.8968.49371,2.78813.17101,5.75856.92526,8.33916.24437,7.15143-1.8869,12.59258.99518,17.26109,5.66231,3.26799,3.267,5.55399,7.43423,5.3969,12.30276-.11238,3.48325.69347,6.44008,3.4194,9.12083,1.76329-4.8201,4.33961-8.86862,8.76338-11.63731,4.40442-2.75658,8.92758-4.08429,14.00681-2.50899,3.53455,1.09624,6.78232-.80162,10.20966-.86131.85413-.01489,1.63901-1.118,2.66858-.20287,1.00696.895,1.84009,1.73354,1.92981,3.27892.31802,5.47885-1.24292,10.45123-4.36407,14.78673-3.43982,4.77818-8.00861,8.37706-13.66116,10.29048-5.14026,1.74001-10.33835,1.54071-15.49101-.14444-2.36668-.774-3.48694-.20512-3.55438,2.07233-.12325,4.16124-.03508,8.32872-.03508,12.90312,3.39693.41789,6.76447.85149,10.13702,1.24142,3.095.35788,6.20691.59132,9.28638,1.0482.90286.13396,1.70193.88445,2.58121,1.27975,1.32819.59717,2.64075,1.31392,4.03918,1.65196,2.68616.64932,4.7298,2.20451,6.53595,4.15205.43073.46446.80389,1.11403.90811,1.72856.77325,4.56006,1.09915,9.11876-.21625,13.65959-.55609,1.91971-1.82233,2.62451-3.71429,2.5491-1.16473-.04642-2.33282-.00693-3.49942-.00693-71.49529.00012-142.99062-.03647-214.48577.06064-6.64489.00903-7.80375-1.10321-7.63851-7.67017.07874-3.129.68487-5.35075,3.74302-6.75726,2.06111-.94795,3.81261-2.54996,5.76983-3.74974,1.28882-.79007,1.69793-1.78998,1.68928-3.29045-.06139-10.66258-.03271-21.3257-.03271-32.07016-6.41143-3.27245-10.52864-8.40933-12.2406-15.29312-.62569-2.5159-.72388-5.20326-.75486-7.81604-.03442-2.90341,1.47031-4.26401,4.01138-3.28764,2.62132,1.0072,5.19772.7429,7.8138.84998.28524.01164.57995-.20805,1.0477-.38911ZM226.07379,218.97257c0-3.10291-.00696-5.76407.00311-8.42517.00464-1.2184-.12836-2.19576-1.56815-2.72388-3.19119-1.17061-6.36002-2.43074-9.4429-3.85948-2.71259-1.25714-5.53329-.72491-8.30832-.87595-5.26369-.28648-10.40546-.88292-14.90471-4.01872-1.24434-.86725-2.57402-1.34602-4.13075-.35077-.9334.59674-2.13475.76535-3.2018,1.16356-6.69383,2.49812-13.53273,4.08989-20.73982,3.20027-1.7726-.21881-3.509-.85342-5.27988-.94241-7.44667-.37421-14.88589-.1032-22.20552,1.36278-2.00829.40222-3.73819.65292-5.71324-.12161-1.61288-.63252-3.5584-1.27066-5.15617-.93965-6.80618,1.40997-13.40536.90793-19.83009-1.55202-1.5058-.57655-2.58125-.7699-4.1449-.09755-4.03252,1.73389-8.28096,2.96803-12.3036,4.72185-4.46303,1.94585-8.98285,3.21495-13.86147,2.49734-2.89467-.42575-5.76039-1.05684-8.63049-1.63829-2.38808-.48378-5.03696.12027-7.14396-1.50294-1.85954-1.43257-3.76071-1.11118-5.57516-.20659-3.93551,1.96204-7.83421,1.9483-11.93315.50218-3.94153-1.39059-4.02158-1.35837-7.98564.04263-1.59396.56334-3.20814,1.4137-4.70605.4875-3.41611-2.11224-6.6736-.94006-9.59603.60089-4.05161,2.13638-7.79374,4.8636-11.64656,7.37137-1.89891,1.23596-2.50417,2.94635-1.62595,5.30466h219.63121ZM18.18955,5.13373v32.72147h15.71599c0-7.04874.00681-13.85196-.00229-20.65516-.00653-4.88465-1.073-6.10413,5.99029-6.0932,52.44788.08114,104.89595.04394,157.34396.0439h5.68335c-.12469-2.29862.334-4.21068-.37328-6.01701H18.18955ZM33.69679,153.07397v-69.89116h-15.47046v60.70151c5.88762,1.24297,10.97251,3.49896,15.47046,9.18965ZM8.06822,77.78825h33.7647v-34.40827c-8.40475-.76669-30.42178-.51765-33.7647.34896v34.05931ZM18.23935,173.22784v28.76964c3.67726-2.26315,7.23589-2.51848,11.0966-1.28568,3.3535,1.07082,4.53823.06898,4.55676-3.45566.03754-7.14078.01156-14.28191.01111-21.42288-.00005-.66426.18171-1.40514-.05217-1.97435-.32906-.80084-.5699-1.62088-2.06812-1.17-3.89764,1.17297-7.89735,2.15282-11.95864.4433-.38794-.1633-.93256.04564-1.58554.09563ZM113.9807,133.33523c0-1.77452-.11902-3.07779.02115-4.35257.53214-4.83969,2.58205-9.07664,5.4493-12.93282.89954-1.20981,2.17313-1.50806,3.49869-.59152,1.51173,1.04526,1.0582,2.22098.10899,3.36795-3.6367,4.39445-3.96918,9.87712-4.94025,15.13733-.11765.6373.26996,1.36787.45079,2.17793,11.94615-6.71634,13.36201-24.0334,5.10878-31.21588-3.58983,3.59036-7.47203,6.97318-10.7317,10.87593-3.16882,3.79398-4.3439,11.69403,1.03426,17.53365ZM122.57004,175.58225c1.30014-1.0108,1.71349-1.35941,2.15366-1.67001,3.2133-2.26755,6.50777-4.43732,10.39664-5.31522,1.90031-.429,3.91371-.58444,5.85527-.47989.67662.03642,1.57854,1.13548,1.82602,1.92267.14798.47061-.63013,1.56166-1.24507,1.87158-1.1387.57391-2.45052.83321-3.71243,1.12865-5.06107,1.18486-9.39561,3.56282-13.14038,7.87444,6.1703,2.58815,11.72746.92859,16.52611-2.09711,5.48991-3.46161,9.26909-8.57739,9.59177-15.60428-4.88182-.60265-9.56281.74043-14.04741-.99345-.49037-.18959-1.23065.26395-1.85419.42241-6.32338,1.60724-9.79141,6.01408-12.34998,12.94022ZM186.823,164.62417c-3.30017-4.30505-7.98412-6.54451-12.85452-8.50748-1.34821-.54337-2.77165-.96629-4.00661-1.70271-.92068-.549-1.21899-1.52394-.2709-2.49733,1.03232-1.05986,1.72617-1.80882,3.72-1.29774,3.73315.95686,7.04866,2.51466,10.2186,4.56795,1.3746.89038,2.7626,1.76007,4.48701,2.85704-.96921-3.63805-2.75439-6.77631-5.03043-8.24911-1.75876-1.13808-3.75014-2.49695-5.71329-2.62756-5.39905-.35922-10.83763-.12404-16.55624-.12404.53441,8.17325,4.81198,13.24625,11.03413,16.91302,3.17149,1.86902,6.76088,2.45512,10.45491,2.14816,1.5968-.13269,3.40739.38728,4.51733-1.48019ZM228.89621,158.8969c-3.64279,1.67171-7.22308,1.69672-10.42001.76662-3.57095-1.03894-6.42401-.34377-9.34177,1.3947-3.78162,2.25316-6.1693,5.45897-7.1664,10.19897,1.43521-.89197,2.46992-1.42268,3.37776-2.11885,3.74802-2.87413,8.29184-3.69736,12.66229-4.93784,1.38773-.39389,2.69736.59116,2.99844,1.90266.30634,1.33441-.47141,2.56566-1.94849,2.96181-.4704.12617-1.02332-.04305-1.48657.09589-5.48312,1.64445-10.81448,3.55786-14.44376,8.50664,6.35876,2.30627,12.1257.87518,17.18561-2.75168,5.16699-3.70364,9.19141-8.40013,8.58289-16.01892ZM45.03812,174.40314c3.54719-1.95479,6.42535-3.80296,9.51889-5.16029,2.35027-1.03122,4.95319-1.53615,7.48485-2.08563,1.49169-.32375,2.55761.49026,2.89711,2.01318.29794,1.33643-.51482,2.48178-2.07213,2.85664-1.73751.41823-3.54008.59523-5.24828,1.10049-4.29379,1.27005-7.7494,3.8138-10.89964,7.19807,14.59602,4.31577,26.76253-7.91309,25.92883-18.15361-.75948,0-1.62646-.21617-2.32188.03769-2.89465,1.05659-5.65182.8224-8.61848.04317-2.5257-.66341-5.16876-.25597-7.63309,1.14563-4.20296,2.3905-7.12621,5.77618-9.03618,11.00465ZM31.14057,167.72045c-4.18936-4.02013-8.21474-7.31561-13.50461-8.67702-.94199-.24243-1.89033-.54938-2.75474-.98665-2.24858-1.13751-2.32468-2.46979-.34174-4.08928.83999-.68604,1.53423-.65273,2.65427-.34932,4.00058,1.08371,7.64024,2.80408,11.01234,5.1692,1.10611.77583,2.25368,1.49252,3.38229,2.23625-.4779-2.5414-1.26629-4.86293-2.8624-6.26485-2.15786-1.89534-4.2243-4.50021-7.37969-4.63019-5.41651-.22313-10.84887-.06168-16.73691-.06168.87492,6.72876,3.54119,11.70064,8.82811,15.14954,5.29506,3.45424,10.87892,5.17953,17.70307,2.50398ZM108.90767,155.61181c-.1422-1.47478.02437-2.49481-.36726-3.20854-.70628-1.28709-1.53981-2.67017-2.68608-3.51901-3.45877-2.5612-6.74879-5.61005-11.79651-3.98663-1.81779.58463-3.96309.16243-5.95911.17824-1.94371.01541-3.88762.00334-5.61934.00334-.25575.53352-.3989.68576-.38152.8167,1.51855,11.44574,12.41815,19.35799,23.6601,18.04822.77946-.09082,1.48129-.84804,2.26097-1.32066-3.70882-4.44409-8.00696-7.2906-13.30128-8.65662-1.06831-.27565-2.11485-.94124-2.97099-1.66434-1.40097-1.18333-.89758-3.54468.86014-4.00494.90648-.23738,2.04979-.25812,2.89574.0882,2.70621,1.10788,5.36966,2.34512,7.95872,3.70541,1.71257.8998,3.26913,2.09653,5.44643,3.52065ZM74.1154,32.90852h12.62578c-2.43251-1.47757-4.0713-2.47301-5.82454-3.53798,0-1.62949.07637-3.28613-.05171-4.92679-.03358-.43026-.7014-.81101-1.07796-1.21449-.25941.34852-.79044.74666-.7372,1.03805.70609,3.86488-1.02644,6.25759-4.45618,7.71992-.20412.08704-.26919.50025-.47819.9213ZM137.06296,32.93539c-.46202-.59256-.66525-1.13155-1.02139-1.26625-3.03441-1.14764-4.88678-2.9776-4.08134-6.51757.07051-.30988.0827-.71004-.05756-.97221-.19496-.36435-.54211-.86181-.85678-.88652-.30779-.02418-.92014.45132-.94463.7453-.16084,1.93092-.19872,3.87209-.26071,5.41263-1.87781,1.16579-3.34581,2.07718-5.61282,3.48462h12.83524ZM130.95189,16.11201c-2.80751,0-5.61627-.04277-8.4213.04078-.48508.01445-.95419.56433-1.43068.86691.41074.36212.8179,1.03479,1.23274,1.03955,5.77882.06635,11.55899.06401,17.33769-.0104.40273-.00518.79642-.71055,1.19431-1.09031-.49672-.28318-.98689-.79694-1.49124-.81127-2.80528-.07972-5.61398-.03825-8.42152-.03526ZM90.59307,17.8617c-1.36566-.89786-2.00348-1.67761-2.65388-1.68826-5.61142-.09183-11.2252-.05893-16.83778-.00748-.36333.00333-.72242.46764-1.08348.71751.36465.40619.72305,1.15926,1.09492,1.16598,4.78616.08641,9.57433.08318,14.36181.06292,1.42805-.00604,2.85559-.13529,5.11842-.25068Z" style="fill: #000; stroke-width: 0px;"/>
      <path d="M81.91561,50.27099c.02985-.2014.04094.64886-.23695,1.3909-.46198,1.23367-2.25027,1.71778-3.33713,1.05271-1.8029-1.10323-1.1329-2.89564-1.32233-4.47284-.17114-1.42517.57779-2.05254,1.7299-2.55892,1.28436-.56452,2.87689-.11407,3.13481,1.10014.16808.79127.03169,1.64719.03169,3.48801Z" style="fill: #000; stroke-width: 0px;"/>
      <path d="M93.03917,49.26244c0-.66232-.22224-1.4423.05164-1.95962.42024-.79382,1.37012-2.0789,1.76268-1.96889,1.11206.31168,2.4165,1.0181,2.95938,1.96306.50208.87395.21698,2.26765.09837,3.4138-.15211,1.46995-1.38206,2.47805-2.65863,2.29464-1.28409-.18448-2.06256-.94423-2.21367-2.25374-.05656-.49024-.00914-.99248-.00914-1.48924.00313,0,.00624,0,.00937-.00002Z" style="fill: #000; stroke-width: 0px;"/>
      <path d="M120.93405,64.03361c.00011-.16284-.00529-.32588.00093-.48849.07533-1.96652.91803-3.36419,2.02243-3.35755,1.19508.00719,2.78177,1.84516,2.93558,3.40053.2283,2.30859-1.08801,4.57369-2.58884,4.45488-1.76959-.14009-2.39081-1.19094-2.3701-4.00937Z" style="fill: #000; stroke-width: 0px;"/>
      <path d="M66.02599,49.66286c-.03983.32681-.01468,1.16629-.2611,1.91656-.46011,1.40086-2.01115,1.72773-3.1245.74783-2.0488-1.80321-2.3177-4.08047-.50236-5.93316.57451-.58632,1.79586-1.16329,2.4032-.92706.68256.26552,1.07948,1.42263,1.45309,2.25788.18293.40897.03168.96741.03168,1.93795Z" style="fill: #000; stroke-width: 0px;"/>
      <path d="M148.99233,49.73901c-.03877.29487-.02051,1.13307-.27466,1.87838-.47714,1.39917-1.99478,1.68616-3.13121.68166-2.00465-1.77193-2.2628-4.14078-.45361-5.92895.58205-.57531,1.81409-1.13213,2.41119-.88425.67979.2822,1.05461,1.44266,1.41733,2.28376.17853.41396.03096.96854.03096,1.96939Z" style="fill: #000; stroke-width: 0px;"/>
      <path d="M74.05837,64.07218c.03018,1.48881.14671,3.0639-1.53643,3.76931-.45107.18904-1.25474-.07702-1.72492-.39109-1.50767-1.00703-2.05479-2.53668-1.66954-4.26215.16325-.73116.67409-1.49554,1.24609-1.99266.54479-.47347,1.48091-.97905,2.05128-.81142.62962.18504,1.18039,1.05481,1.49917,1.7487.25304.55077.10455,1.28599.13435,1.93932Z" style="fill: #000; stroke-width: 0px;"/>
      <path d="M90.04149,64.93255c-.02092.16043-.00151,1.00262-.25638,1.75143-.47314,1.39011-2.07256,1.69067-3.15242.6412-.46663-.45348-.99878-.94051-1.22585-1.52014-.63152-1.61212-.62181-3.26572.80132-4.45712.63887-.53485,1.7888-1.0954,2.43124-.86749,1.74681.61976,1.42651,2.33955,1.40208,4.45212Z" style="fill: #000; stroke-width: 0px;"/>
      <path d="M112.93425,49.04566c0-.49948-.01952-.99987.00377-1.49827.06311-1.35157.84862-2.20325,2.11388-2.31347,1.20732-.10516,2.48933,1.65562,2.35374,2.97723-.10023.97718-.0071,2.064-.4198,2.89304-.38229.76794-1.33429,1.75072-2.01218,1.73332-.68233-.0175-1.48808-1.06001-1.9474-1.82818-.29312-.49022-.05489-1.29817-.05489-1.96366l-.03712-.00002Z" style="fill: #000; stroke-width: 0px;"/>
      <path d="M133.07611,49.14264c.00005.16286.00526.32591-.00076.48855-.07506,2.02367-.83981,3.28393-2.02763,3.34459-1.19608.06107-2.06169-1.23374-2.15022-3.21983-.00725-.16253.00076-.32569-.00121-.48853-.03377-2.79085.79025-4.26878,2.27191-4.07385,1.23911.16301,1.9234,1.57942,1.90791,3.94907Z" style="fill: #000; stroke-width: 0px;"/>
      <path d="M136.87906,63.84141c.03372-.75649-.12688-1.38065.11465-1.70894.5352-.72745,1.25009-1.77991,1.93338-1.81199.67648-.03178,1.85347.92435,2.01434,1.62903.31927,1.39835.32216,2.97693-.00981,4.37007-.16432.68954-1.30797,1.43137-2.11255,1.57772-.49841.09065-1.48001-.78098-1.72777-1.42083-.33517-.86568-.17433-1.92339-.21225-2.63506Z" style="fill: #000; stroke-width: 0px;"/>
      <path d="M11.91146,59.8671c.0779-7.41242,5.67748-12.81416,13.24676-12.77869,7.19882.03372,13.85175,6.2067,13.61131,13.36195-.11009,3.27609-1.01672,6.70299-3.76875,9.30505-2.9065,2.7481-6.23631,4.33281-10.12037,4.23837-8.29771-.20176-13.69239-6.73795-12.96895-14.12668ZM24.83293,69.03132c4.7168.06908,9.04593-3.96313,9.07153-8.44934.0244-4.27591-4.07137-8.38376-8.49937-8.52441-4.74488-.15073-9.01351,3.6093-9.31063,8.20128-.28113,4.34484,4.0611,8.70397,8.73847,8.77248Z" style="fill: #000; stroke-width: 0px;"/>
      <path d="M27.01146,61.63209c-.27781.64452-.76021,2.0285-1.45463,3.29633-.62816,1.14685-1.79326,1.54617-2.99063,1.04483-1.1371-.4761-2.17863-1.60705-1.49619-2.72966,1.11961-1.84178-.00421-2.6082-1.08308-3.56884-.99861-.88917-1.42369-1.80782-.2927-2.93473.95444-.95098,1.84949-1.84564,3.25604-.67938.75565.62656,1.52155,1.36002,2.41365,1.67666,1.60333.56908,1.81285,1.70345,1.64754,3.89479Z" style="fill: #000; stroke-width: 0px;"/>
    </g>
  </g>
</svg>