<?xml version="1.0" encoding="UTF-8"?>
<svg id="Camada_2" data-name="Camada 2" xmlns="http://www.w3.org/2000/svg" viewBox="0 0 221.46252 221.45904">
  <g id="Camada_1-2" data-name="Camada 1">
    <g>
      <path d="M24.80086,175.99303c-6.14087.30632-12.28025.64752-18.42308.90744-4.54773.1924-6.46153-.7084-6.23195-3.09183.3545-3.68019,3.3717-3.5428,6.04179-3.70598,5.11726-.31279,10.23605-.60071,15.90845-.93126,0-6.80106.0946-13.09473-.1002-19.37941-.02982-.96194-1.20382-2.36511-2.17238-2.75043C2.7647,140.25518-2.37336,131.27939.95795,113.34363c1.47547-7.94392,4.39456-15.39299,9.27317-21.89304,1.87603-2.49954,4.10915-4.86847,6.59659-6.74376,5.54637-4.18142,12.16533-4.33759,17.55324.04829,3.41558,2.78033,6.04817,6.55309,8.87919,10.00599,1.13383,1.38289,1.85767,3.10193,3.17305,5.36444.95712-2.24924,1.45951-3.99104,2.37482-5.47882,3.11986-5.07119,5.76465-10.62251,9.73132-14.94357,7.05323-7.68337,15.80512-7.43621,23.23192-.03143,2.32703,2.32013,4.11768,5.20152,6.01102,7.92526,1.29007,1.85589.71917,3.87915-1.15451,4.60935-1.17377.45743-3.36488-.08219-4.31529-.99287-2.1379-2.04852-3.56262-4.83658-5.6825-6.9096-4.4984-4.39898-8.84335-4.62992-13.09686-.08073-9.24458,9.88723-13.43687,21.78539-11.64566,35.28757.95724,7.21556,6.45884,11.82678,14.45526,13.03941.19234-6.16141,2.31776-12.3981-3.96094-17.1908-2.03865-1.55615-4.46821-3.60477-2.10377-6.6638,1.4314-1.85191,3.65708-1.19374,6.76874,1.71716.84134.78708,1.71441,1.54025,2.92118,2.62082,1.50153-1.34637,2.94728-2.62303,4.37064-3.92416,1.66135-1.51869,3.58727-2.1819,5.3344-.52084,1.78828,1.70016,1.13776,3.62361-.41744,5.2764-.22839.24272-.42824.53148-.69914.71222-6.94855,4.63637-4.95323,11.43031-4.74448,17.94792,8.86938-1.15845,14.51221-7.27106,14.87354-16.33473.14402-3.61273-.52602-7.28784-1.10744-10.88902-.38515-2.38554-.4493-4.51851,2.28885-5.18927,2.80882-.68808,3.86013,1.38467,4.38012,3.6422,1.59042,6.90482,2.25211,13.80688-.32654,20.6619-2.70227,7.18365-7.74885,11.90082-14.97833,14.32791-5.53652,1.85873-5.54852,1.83963-5.40218,7.82619.02.8181.12755,1.63405.2478,3.09988,1.41541-.86494,2.62328-1.33194,3.46932-2.16599,4.14733-4.08855,8.51704-8.01108,12.21654-12.48183,7.50072-9.06442,15.81084-17.15048,25.85831-23.3224,2.24042-1.37624,3.40471-2.98621,3.16203-5.65486-.15031-1.65263-.21356-3.35704.01392-4.99232.81464-5.85615-.69225-9.2811-6.95723-11.91553-9.56581-4.02245-13.30615-13.2832-14.53795-23.0453-2.40695-19.07532,1.69252-37.11094,10.30475-54.12588,1.61433-3.1894,4.08981-6.14223,6.75386-8.55811,5.0298-4.56125,10.83385-4.56915,15.71069.12942,2.94127,2.83374,5.69655,6.26357,7.33548,9.95787,2.95425,6.65913,5.01987,13.71363,7.42712,20.61329.47768,1.36909.82254,2.78451,1.44153,4.90929,4.78645-4.38685,9.05408-8.31315,13.34125-12.218,1.23042-1.12071,2.36354-2.63862,3.82474-3.12785,1.26996-.42521,3.3123-.09631,4.30408.7402.67361.56814.48833,2.73636.01303,3.91786-.45642,1.13465-1.75012,1.95368-2.7291,2.85355-7.23886,6.65399-14.494,13.29025-21.73595,19.94089-1.19939,1.10146-2.35927,2.24596-4.04782,3.8578,5.0106,1.15636,8.80672,1.30765,12.40512-2.25314,5.80014-5.73955,11.95285-11.12526,18.00711-16.60467,3.66357-3.31573,4.81694-3.33141,8.45679-.05329,5.94379,5.35312,12.03146,10.57372,17.6371,16.2652,3.55432,3.60876,7.36453,3.82268,12.79222,2.83501-1.68929-1.72668-2.82616-3.00056-4.07738-4.14996-9.94089-9.13206-19.90358-18.2404-29.8593-27.35632-.73746-.67527-1.47554-1.34989-2.20866-2.02984-1.62257-1.50488-2.56445-3.30411-1.05084-5.26421,1.52129-1.97005,3.43939-1.60183,5.27991-.20519.50571.38375,1.13203.60858,1.95316,1.03679,1.27971-2.30325,2.42752-4.49436,3.69797-6.61189.85458-1.42437,1.80014-2.81163,2.84644-4.10068,6.82053-8.4029,14.91814-8.48285,21.78314-.13459,4.95966,6.03123,7.79916,13.17051,9.929,20.56037,3.71048,12.87424,6.31503,25.90223,4.0965,39.41228-.9865,6.00732-2.63312,11.94134-6.84019,16.36984-3.763,3.96107-3.63313,8.15865-3.03688,13.30368,2.24054.09993,4.35172.14784,6.45525.3007,2.18022.15843,4.10838.98956,4.08739,3.46794-.02139,2.51823-1.98024,3.25627-4.17986,3.27748-5.33237.05142-10.66566.01338-15.99782.07677-13.99315.16637-28.00206.01816-41.97365.66531-11.2357.52046-21.83789,3.98091-32.974,9.61549,14.27734,8.13734,24.90987,18.78059,32.5188,33.85965.89023-3.63441,1.16873-6.09978,2.09636-8.29024,2.12556-5.01921,3.91672-10.36699,7.02519-14.74184,5.49364-7.73169,13.43036-7.63968,19.06943-.04056,2.9287,3.94666,4.89796,8.60529,7.34731,13.02654.0623-.0078.46303.06659.6535-.09978,8.26006-7.21457,15.24335-2.90688,19.22525,3.57758,5.44008,8.85902,8.61325,18.40312,6.70081,28.99414-1.18088,6.53973-4.81583,11.36697-11.11772,13.66652-2.60394.95018-3.14819,2.42268-3.08649,4.84216.26114,10.24011-1.60855,9.58777,9.03282,9.89604.99481.02882,2.21967-.19681,2.9274.29102,1.11914.77139,2.77271,2.22423,2.603,3.06715-.25424,1.26309-1.80634,3.07599-2.95773,3.19533-3.45061.3576-7.02551.3643-10.46161-.12544-21.12863-3.01152-36.95702-13.47023-45.90875-33.3093-2.80727-6.22151-5.44008-12.52219-8.27766-18.72949-6.66762-14.58566-17.07359-25.65958-31.21249-33.30124-2.57643-1.3925-4.52484-1.41643-6.74448.44762-3.26001,2.73775-6.65236,5.3179-10.52528,8.39131,2.50777,1.1525,4.11499,1.9191,5.74431,2.63548,12.87495,5.66096,22.51103,14.68884,28.43655,27.5079,2.58432,5.59085,5.01295,11.25439,7.45274,16.91063.45064,1.04472,1.03784,2.3143.80109,3.29669-.26851,1.1142-1.20549,2.41229-2.2061,2.89301-.76485.36743-2.39856-.09007-3.07758-.75816-1.02049-1.00403-1.64767-2.46606-2.2606-3.81578-2.478-5.45667-4.76302-11.00388-7.34558-16.40955-5.92337-12.39839-15.79085-20.32399-28.55258-25.00327-3.24895-1.19125-5.38509-.82977-7.63718,2.09698-11.11897,14.44984-25.21064,25.10027-42.21352,31.73659-5.20396,2.03114-10.61569,3.53001-16.00926,5.29788,1.76661,2.31956,3.36708,4.58157,5.1347,6.70442,2.68555,3.22525,6.56401,3.0811,9.17809-.27969.60841-.78218.96518-1.76033,1.57491-2.5412,4.3631-5.58752,12.41871-5.67601,16.90065-.18486.62613.76711.96554,1.77853,1.6264,2.50525,3.37112,3.70715,5.6999,4.41754,9.67501-.14375.64838-.74402,1.02163-1.72565,1.65992-2.48094,4.47421-5.29449,12.13194-5.25871,16.57453.06776.52815.63326.86766,1.42149,1.379,2.0715,4.03282,5.1265,7.11725,4.37038,10.12053-.0658,2.90544-4.29167,6.81111-7.3916,11.66066-5.65738,7.27986,2.60335,12.5571,8.40892,15.7197,15.31857,1.91306,4.1797-.24696,8.32968-4.02454,11.41978-3.28413,2.68646-6.28246,5.73601-9.26735,8.76292-.5887.59695-.67284,1.81059-.75529,2.76019-.12932,1.48978-.02147,2.9984-.0825,4.49625-.08934,2.19293-.88301,4.18689-3.29843,4.26465-2.8188.09074-3.88155-2.19852-3.4082-4.46629,1.55777-7.46327-5.14365-10.09932-8.46843-14.54425-2.07469-2.77368-5.38435-1.685-7.8869,1.4091-1.54494,1.91013-3.45239,3.53259-4.94318,5.47871-.81978,1.07019-1.36453,2.50243-1.58289,3.84471-.29135,1.79111.22441,3.77216-.31313,5.44449-.37392,1.16324-2.05901,2.814-2.93874,2.68993-1.27921-.18042-3.46955-1.93121-3.34986-2.72127.90756-5.99046-2.63328-9.47087-6.03385-13.64505-4.06481-4.98953-7.73122-5.32542-11.11444.1228-.26319.42386-.46815.9863-.85802,1.21342-4.59938,2.67967-5.616,6.81743-5.37738,11.79694.05254,1.09648-1.80188,3.12666-2.88277,3.20074-1.10395.07567-3.46323-1.91476-3.33579-2.67671,1.08239-6.47162-3.19799-10.17749-6.66599-14.46463-3.33476-4.12245-6.92303-4.2337-10.02621.10275-.09592.13406-.12393.32545-.23597.438-3.84517,3.86237-7.42162,7.75809-6.36891,13.9847.12411.73407-2.13498,2.45779-3.4379,2.63594-.84054.11493-2.10659-1.64825-2.8789-2.77708-.39977-.5843-.23077-1.62762-.16204-2.45047.29135-3.48752-.39024-6.18904-3.68567-8.43765-3.19093-2.17729-5.75038-5.33325-8.41246-8.22047-4.48166-4.86072-3.40542-12.02867,2.03158-16.18921,2.24149-1.71524,4.04322-4.00516,6.04497-6.03368-.30293-.39034-.60586-.78067-.90879-1.17101ZM173.64308,41.55021c-5.05215,4.62718-9.55836,8.82076-14.13931,12.93106-4.48021,4.01991-8.1871,9.4138-15.43951,8.32898v36.24121c4.16571-.69656,7.8875-1.51103,11.65297-1.88228,2.59413-.25575,3.39287-1.41352,3.33125-3.83257-.10173-3.99496-.03186-7.99461-.01553-11.9922.02725-6.67087.57629-7.24791,7.0103-7.27422,5.16354-.02113,10.32739-.02789,15.49086.00246,5.80331.03411,6.54559.75804,6.62239,6.66672.06454,4.96637.01326,9.93424.01326,15.47671,4.5761,0,8.53401-.03165,12.49109.01253,2.18121.02432,2.91359-1.15712,2.91191-3.12471-.00786-9.161-.01028-18.32201.00241-27.483.00278-1.9965-.7636-3.2889-2.93706-3.01746-3.59863.44943-5.88707-1.64772-8.2496-3.84871-6.0746-5.65924-12.22806-11.23385-18.74542-17.20451ZM29.51019,140.02843c1.17772-.13678,2.00239-.11006,2.74924-.33817,7.84646-2.39616,12.53659-9.48273,12.09586-18.59833-.44432-9.18954-3.29124-17.65489-8.51941-25.22794-1.39831-2.02544-3.17244-3.89382-5.09609-5.43137-3.29434-2.63312-6.77709-2.64775-10.09523-.09028-1.82121,1.4037-3.50613,3.12233-4.84341,4.99162-5.46558,7.64003-8.33229,16.27502-8.93443,25.60387-.3078,4.76875.79373,9.34982,3.88942,13.12418,2.76114,3.36646,6.08952,5.93187,11.00466,5.68765.69076-6.95023,1.81942-13.65945-5.03429-18.18486-.26961-.17802-.46172-.47768-.67891-.73015-1.37413-1.59738-1.72106-3.27408-.08685-4.86414,1.61589-1.57222,3.3205-1.23375,4.8961.13538,1.59015,1.38179,3.13555,2.81509,4.82581,4.33875,1.91737-1.74818,3.31918-3.5304,5.15014-4.5127,1.15806-.62128,3.24451-.5527,4.39855.10791,1.64919.94405,1.53004,2.80727.33372,4.35857-.50648.65678-1.01698,1.36909-1.68014,1.8374-6.55828,4.63121-5.07789,11.08365-4.37475,17.7926ZM117.71353,84.38849c1.31096-3.1064.83485-5.3936-1.38086-7.49083-2.65945-2.51725-5.22562-5.13996-7.72353-7.81833-1.42227-1.52502-1.56592-3.39249-.10715-4.94747,1.55542-1.658,3.30019-1.18835,4.87209.17184,1.33868,1.15838,2.65298,2.34492,3.97807,3.51901.37376-.08159.74751-.16318,1.12128-.24477,0-3.57654-.27071-7.17871.06499-10.72346.47507-5.01659-.64111-9.16716-4.86032-12.24682-.78549-.57333-1.46318-1.39812-1.96098-2.24227-1.46053-2.47673.12354-5.2001,3.02026-5.12104,1.05411.02877,2.09438.56462,3.74405,1.04458,0-2.27568-.01558-4.07301.00333-5.86996.03679-3.49644-.12202-7.01682.26671-10.47484.12294-1.09355,1.80394-2.89155,2.64188-2.82109,1.29033.1085,2.90788,1.30645,3.56987,2.49652.65353,1.17487.35225,2.91355.3651,4.40579.03406,3.95964.01155,7.91976.01155,12.04377,1.03889-.15206,1.57909-.09788,1.97459-.31152,1.97421-1.06642,3.99677-.6797,4.62013,1.21974.44182,1.3463-.46814,3.28996-1.15019,4.79706-.45105.99673-1.48219,1.80404-2.40042,2.50339-3.61586,2.75392-3.4818,6.30243-2.40648,11.01433,4.50226-4.11813,8.59126-7.69799,12.43944-11.52032.7251-.72024.82599-2.45744.6461-3.63874-1.43727-9.43865-4.06213-18.52959-8.66286-26.94624-1.10658-2.02439-2.47906-3.98161-4.06662-5.6484-3.16112-3.31889-5.86778-3.36311-8.96036-.04799-1.79289,1.92191-3.37318,4.16382-4.56015,6.5092-6.66197,13.16397-9.69952,27.23539-9.69443,41.92715.00227,6.5424,1.16483,12.96008,4.70773,18.66312,2.3101,3.71861,5.22249,6.7448,9.88718,7.79857ZM49.331,132.75764c-3.3774,7.49538-9.49178,12.57954-18.27298,14.40135-.79218.16434-1.86142,1.58577-1.88459,2.44804-.16349,6.0844-.08684,12.17525-.08684,18.71812,2.4657-.26811,4.32925-.18805,6.01077-.70271,7.11853-2.1788,14.51227-3.83351,21.19716-6.97435,13.08496-6.1478,10.04877-3.20094,10.38995-17.45079.00397-.16573.06014-.38467-.022-.48956-.81324-1.03836-1.44294-2.46803-2.51701-3.01176-4.66213-2.36014-9.45585-4.46031-14.81447-6.93834ZM192.52885,29.7197c0-2.62579-.04054-4.72887.01112-6.82968.05426-2.20672.73065-4.03596,3.38554-3.96684,2.6093.06794,3.29079,1.98118,3.35347,4.11431.10741,3.65453-.01541,7.31589.09589,10.97019.03891,1.27719.04897,2.98123.81522,3.7394,4.16606,4.12213,8.56435,8.00957,13.65137,12.68414,0-2.30647.11336-3.29741-.01736-4.25503-1.47-10.76833-4.11084-21.21-9.33099-30.8197-1.32568-2.44041-3.0667-4.84092-5.16708-6.60444-1.24014-1.04127-4.05122-1.67833-5.30904-.97745-5.39658,3.00705-8.23907,8.44139-9.47702,14.0523-.8036,3.64227,4.0941,5.00754,6.37936,7.4436.09691.10331.31264.09517,1.60953.44919ZM173.24696,161.91881c1.80768-4.85611-.79404-8.17946-2.20164-11.8475-.49515-1.29031-.27657-3.39.51364-4.45282.541-.7276,2.85135-.77902,3.97708-.26712,1.34035.6095,2.05225.74998,3.48253.07498,1.18109-.5574,3.56207-.36649,4.32181.47572.77925.8638.50591,2.97893.19351,4.43951-.30287,1.41615-1.49306,2.63428-1.84236,4.05064-.56329,2.28403-.7563,4.65936-1.1582,7.34717,5.54709-1.7632,8.02966-5.10046,8.12729-11.15167.12624-7.82413-2.02058-15.13037-6.52588-21.56543-3.29558-4.70721-6.43974-4.64082-9.73691.15169-4.35347,6.32794-6.49254,13.4902-6.37386,21.1196.07637,4.90903,1.55482,9.45464,7.22299,11.62523ZM199.79373,176.50767c-.15779-2.29634-.01656-4.44084-.52397-6.41898-.4866-1.89708-1.9628-3.54793-2.40414-5.44647-.32175-1.38402-.1151-3.35146.70639-4.37894.54877-.68636,3.02667-.74202,3.87198-.08705,1.68344,1.3044,2.54857.23845,3.90291-.26215,1.05295-.38916,2.94496-.354,3.53958.31465.8022.9021,1.13248,2.66675.9084,3.92664-.28081,1.5788-1.56577,2.95735-1.99106,4.53709-.65735,2.44164-.95341,4.98053-1.4796,7.90578,6.0549-1.98418,9.14207-6.57442,8.15787-13.2323-.83881-5.67436-2.74599-11.2515-4.72791-16.67149-1.04965-2.87048-2.87975-6.26447-6.49762-6.17648-3.78557.09207-5.18155,3.74371-6.78973,6.63307-.46861.8419-.61649,1.86827-.87549,2.81985-1.03868,3.8161-1.84563,7.71181-3.14273,11.43726-2.08342,5.98389.93207,12.93675,7.34512,15.09952ZM199.80015,195.55997c0-3.26799.18578-6.06889-.09499-8.82224-.10649-1.04439-1.08441-2.53593-2.01152-2.87415-6.30363-2.29956-10.03879-6.75056-11.94655-13.04851-.2469-.81508-1.69475-2.01433-2.19583-1.84941-1.05722.34798-2.58641,1.43802-2.63794,2.30034-.26678,4.46338-.18344,8.95229-.07466,13.42871.01698.69841.64458,1.56673,1.24146,2.03728,5.09711,4.01839,10.58578,7.2724,17.72003,8.82797ZM74.64158,192.30532c-1.30503-1.481-2.04352-3.08595-3.18748-3.46405-2.71561-.89751-4.62191-1.99602-5.31818-5.12177-.25124-1.12794-2.39922-2.58206-3.62917-2.53438-1.24937.04845-3.18456,1.57513-3.49302,2.79097-.67126,2.64589-2.11659,3.75583-4.51214,4.658-1.25547.47284-2.90403,2.297-2.80786,3.37047.1263,1.40987,1.53156,3.29053,2.86523,3.87271,2.11784.9245,3.5715,1.74954,4.31812,4.19463.42244,1.38347,2.36305,3.1454,3.66271,3.18118,1.2897.03552,3.3782-1.64897,3.79436-2.98953.8091-2.60638,2.26112-3.66273,4.69674-4.44458,1.29164-.41461,2.18658-2.065,3.6107-3.51366ZM121.68948,204.4611c1.67346-1.63492,3.46513-2.56218,3.74364-3.82355.64003-2.89886,2.26385-4.00735,4.88861-4.87572,1.16739-.38623,2.51659-2.41405,2.47279-3.65034-.04333-1.22298-1.51137-2.96361-2.75703-3.45352-2.34535-.92244-3.91702-1.90358-4.56203-4.60777-.29274-1.22736-2.3134-2.95056-3.40778-2.85289-1.42429.12715-3.48219,1.60431-3.88599,2.92337-.79318,2.59114-2.21895,3.6787-4.61249,4.55562-1.23973.45419-2.86076,2.38071-2.72844,3.44559.17464,1.40546,1.65607,3.22719,3.01669,3.77519,2.21175.89084,3.49596,1.93121,4.21239,4.30257.44025,1.4572,2.09927,2.54616,3.61963,4.26146ZM181.19444,96.21805c0-4.64609.13914-8.76248-.11328-12.85471-.05269-.85435-1.55579-2.31336-2.38327-2.30833-4.06708.0247-8.13173.44916-12.19724.73245-.18945,3.9381-.4146,7.87495-.55275,11.81484-.06549,1.86747,1.01428,2.63687,2.82234,2.62427,3.94975-.02751,7.89984-.00851,12.42419-.00851ZM33.34786,179.98343c-1.69924,1.59705-3.41364,2.46394-3.81967,3.74541-.8372,2.64218-2.1391,4.14862-4.86284,4.99039-1.21537.37561-2.69532,2.29736-2.6981,3.52048-.00279,1.2298,1.45447,3.14948,2.67269,3.55104,2.45746.81001,3.81216,2.00327,4.73658,4.46976.51117,1.36392,2.50874,3.04565,3.78337,3.00302,1.27975-.04282,3.04819-1.83125,3.60516-3.24701.81092-2.06134,1.87941-3.15822,3.90856-4.0153,1.42324-.60115,3.0457-2.12323,3.40384-3.5327.56156-2.21001-1.12375-3.60043-3.3451-4.09648-2.1347-.4767-3.27515-1.72168-3.94572-3.91962-.45483-1.49088-1.98467-2.65379-3.43877-4.46898ZM104.25082,192.19288c-1.33086-1.43097-2.11757-3.02408-3.28294-3.38112-2.80322-.85881-4.5368-2.1981-5.27118-5.20557-.26227-1.07402-2.15846-2.50803-3.21854-2.43666-1.33297.08975-3.39001,1.33595-3.6952,2.47038-.80493,2.992-2.54604,4.28171-5.30482,5.19844-1.08815.36156-2.44379,2.24323-2.33575,3.29486.13705,1.33417,1.41917,3.28691,2.59801,3.62956,2.72951.79341,4.10368,2.17741,4.95663,4.87035.38411,1.21275,2.32283,2.67529,3.55038,2.67003,1.22888-.00526,3.15576-1.48166,3.5318-2.69807.84019-2.71786,2.25325-4.07602,4.98215-4.83134,1.26422-.34988,2.13441-2.12338,3.48947-3.58086ZM136.8719,87.20904c-3.71915,1.64064-6.74211,2.88677-9.67004,4.32616-.74796.36769-1.66937,1.32634-1.7012,2.04914-.16875,3.83131-.07928,7.674-.07928,12.15698,3.73846-1.45959,6.59003-2.34015,9.18927-3.70222,1.04002-.54503,2.06886-2.10875,2.1597-3.2818.27895-3.60233.10156-7.23999.10156-11.54826ZM125.48425,84.18487c7.62268-1.79029,12.06981-7.50528,10.36424-13.629-3.51041,4.61727-11.08437,5.33219-10.36424,13.629ZM125.63087,61.64057v8.38277c3.10883-2.53887,5.49452-4.48718,8.41124-6.86917-3.37868-.60799-5.75972-1.03645-8.41124-1.5136ZM172.54824,176.43471c1.79225-7.18767,1.46503-7.6861-4.32573-7.65781,1.51741,2.68628,2.92157,5.17204,4.32573,7.65781ZM210.56825,72.68873c.43423.05901.86848.11801,1.30272.17702.66162-2.75507,1.42543-5.493,1.89293-8.28062.08659-.51631-1.02217-1.23311-1.57924-1.85738-.5388.49014-1.51543.95651-1.54355,1.47439-.15323,2.82187-.07286,5.65641-.07286,8.4866Z" style="fill: #000; stroke-width: 0px;"/>
      <path d="M152.21487,187.96406c.62997.51686,1.96803,1.23,2.77072,2.33282,7.94041,10.90907,18.2309,18.77254,30.56664,24.11368,1.24344.53841,2.63028,1.66809,3.10902,2.86107,1.04568,2.60565-1.50217,5.01497-4.30437,3.91396-14.44151-5.67426-26.42447-14.62134-35.22296-27.51503-1.76855-2.59174-.38547-5.47935,3.08095-5.7065Z" style="fill: #000; stroke-width: 0px;"/>
      <path d="M66.91844,192.39731c-1.86577,1.42206-2.9361,2.86267-4.20051,3.06003-2.07041.32315-3.36898-1.2419-3.30319-3.30653.06618-2.07681,1.43139-3.54037,3.52544-3.01497,1.2527.31429,2.22153,1.75996,3.97826,3.26147Z" style="fill: #000; stroke-width: 0px;"/>
      <path d="M126.46226,192.67185c-2.26494,1.31491-3.67531,2.77057-4.9894,2.68832-.99106-.06206-2.46216-2.00497-2.64601-3.26707-.30765-2.11189,1.34833-3.47693,3.39961-2.94502,1.26558.3282,2.23633,1.79333,4.23579,3.52377Z" style="fill: #000; stroke-width: 0px;"/>
      <path d="M38.03258,191.87375c-2.41529,1.79764-3.65813,3.40869-4.99842,3.49431-.99918.06384-2.88338-1.78169-2.97598-2.89328-.08921-1.07106,1.53535-3.14093,2.55017-3.2355,1.32816-.12378,2.79693,1.26132,5.42423,2.63448Z" style="fill: #000; stroke-width: 0px;"/>
      <path d="M96.92242,192.44764c-2.24313,1.41605-3.61641,2.95126-4.93037,2.90208-1.0609-.0397-2.72138-1.88237-2.92012-3.1176-.32954-2.04832,1.31537-3.53427,3.38828-3.10414,1.29665.26906,2.35484,1.68727,4.46222,3.31966Z" style="fill: #000; stroke-width: 0px;"/>
    </g>
  </g>
</svg>