<?xml version="1.0" encoding="UTF-8"?>
<svg id="Camada_2" data-name="Camada 2" xmlns="http://www.w3.org/2000/svg" viewBox="0 0 219.49834 212.60497">
  <g id="Camada_1-2" data-name="Camada 1">
    <path d="M41.51504,189.36933c-2.83367-4.2659-5.92794-8.1423-8.16373-12.46294-3.89838-7.53357-7.26842-15.34055-10.85899-23.03336-3.17298-6.79814-3.09464-6.99939,3.50706-10.08897,2.54257-1.18993,5.05949-2.43471,7.945-3.82666-3.89841-8.36986-7.6646-16.47269-11.44505-24.56883-6.97234-14.93185-13.9481-29.86211-20.93298-44.7881-2.49376-5.3289-2.02606-10.42085,1.51974-15.05199,3.29829-4.30787,7.85098-6.12526,13.22627-5.38237,5.83604.80656,9.33335,4.48509,11.74545,9.68475,9.80685,21.14018,19.73568,42.22377,29.6298,63.32341.68968,1.47078,1.46295,2.90234,2.33273,4.61938,3.33752-1.55437,6.35764-2.88338,9.30637-4.35539,3.13055-1.56279,5.27466-1.02061,6.81215,2.34085,5.11551,11.18422,10.3661,22.30663,15.58524,33.49631,19.3846-4.82431,25.83424-2.09848,37.11015,16.76395-.81731-6.54292-1.80505-11.78975-2.07076-17.07289-.81924-16.29047-1.44798-32.59213-1.96326-48.89536-.16179-5.11882-7.40439-16.85263-12.09224-18.44597-1.15302-.39191-2.61198-.01666-3.90805.16479-29.50107,4.13008-51.14986-13.25755-53.77356-43.1325-.28261-3.21805.67262-4.93719,4.04289-5.58308,28.39478-5.44165,50.79816,10.05223,55.99257,38.75472.24802,1.37042.97552,2.81055,1.88243,3.87518,2.47128,2.90111,5.15858,5.61821,8.56393,9.27008,1.23413-6.43826,1.85896-11.79266,3.33035-16.90334,2.45915-8.54148,2.69495-16.48235.37752-25.50552-6.0293-23.47587,7.31972-44.32593,31.5751-50.14865C169.71085.27559,179.24976.68085,188.51307.02077c3.52469-.25116,4.95132,1.79451,5.42419,5.11866,1.43323,10.07466.78882,19.98207-2.41705,29.62098-6.4472,19.38438-22.07129,31.02827-43.12906,32.29969-2.9794.17989-5.97902.02489-9.29768.02489-5.02151,15.15678-6.9192,30.52628-7.35025,46.3998,7.99846-5.13994,15.66631-9.97206,23.19595-15.01073,1.10669-.74057,1.68298-2.40419,2.29269-3.73766,10.77898-23.57381,36.88359-32.15027,59.60185-19.59675,2.40985,1.33162,3.22659,2.83373,2.2804,5.66526-8.27164,24.75359-33.37967,36.43816-57.39087,26.36769-3.49075-1.46404-6.19814-1.50784-9.15672.75081-5.94987,4.5423-12.16562,8.75977-17.86951,13.58647-1.69672,1.43579-3.00345,4.51367-2.86809,6.74062.84825,13.9563,2.16238,27.88411,3.30414,41.82285.25014,3.05379,1.22467,4.95467,4.79716,5.647,5.4512,1.05643,9.36475,4.66702,12.55203,9.24251,1.0197,1.46384,3.15079,2.74692,4.9276,2.99123,9.75949,1.34195,17.39322,8.52254,18.71518,18.05927.74646,5.38498-.20432,6.56204-5.76089,6.56952-25.99777.03503-51.99562.01633-77.99345.01648-19.16495.00009-38.32991.01846-57.49481-.01166-6.01228-.00946-7.12138-1.29541-6.1022-7.17302,1.36703-7.88358,6.17612-13.07387,12.74136-16.04533ZM168.78422,205.5467c-2.57587-7.55878-7.19113-11.04507-14.32404-10.5204-3.70723.27271-5.68657-.51125-7.10394-4.28021-2.89189-7.68991-10.77791-10.87366-18.46248-8.06424-6.12903,2.24072-6.36261,2.10857-7.80151-4.41353-1.98274-8.98723-9.2751-14.67941-18.38033-14.34708-8.87357.32387-15.8573,6.87193-17.00995,15.94882-.79321,6.24631-2.14389,6.95412-7.52206,3.94194-7.74091-4.33549-17.09422-1.86624-20.21165,6.0555-1.77026,4.49843-4.10887,5.44864-8.56862,5.18559-6.7144-.39603-11.89666,4.16591-12.87518,10.49361h132.25977ZM136.51475,53.46593c2.46675-4.03783,4.39987-7.50784,6.62335-10.78059,5.22737-7.69413,11.75696-14.09286,20.06407-18.36599,1.45151-.74664,3.76585.18412,5.68172.34018-.78854,1.85696-1.42572,3.80238-2.43558,5.53-.44176.75574-1.66216,1.04023-2.50052,1.58268-10.5625,6.83426-17.28537,16.6068-22.16946,28.0099.74417.28233.89796.38713,1.05608.39409,31.47102,1.38263,47.06654-22.70287,44.52632-50.74483-.09314-1.02848-2.37308-2.60855-3.68173-2.65763-9.74255-.36544-19.31377.77397-28.3405,4.73705-16.44131,7.21835-24.20346,24.09797-18.82375,41.95515ZM79.7038,175.07827c1.34888-4.32411,5.30908-10.12166,4.07109-14.42311-2.9848-10.37085-8.40085-20.04198-12.94527-30.23949-14.62286,6.86234-28.4097,13.33234-42.37583,19.88647,4.44844,9.517,8.49845,18.45738,12.80085,27.27461,2.29175,4.69662,9.54454,7.91112,12.37601,5.65291,2.93614-2.34172,5.60812-5.01466,8.53523-7.66936-1.0423-2.2486-2.10284-4.4969-3.12877-6.76093-1.0331-2.27985-2.60928-4.91801.56908-6.49162,3.45872-1.71239,4.85156,1.16879,5.70923,3.72603,2.071,6.17496,5.17969,10.76414,14.38838,9.04448ZM104.19883,84.76543c-1.99062-1.35638-3.28168-2.40121-4.71567-3.1843-5.8336-3.18558-11.80258-6.13758-17.50327-9.54146-1.3073-.78058-1.74706-3.01411-2.58607-4.57898,1.80643-.50999,3.61237-1.40219,5.41943-1.40449,1.35384-.00172,2.74323,1.0791,4.05794,1.78717,5.89609,3.17544,11.7711,6.38997,17.8391,9.69123-2.94394-19.00611-26.51591-33.48656-43.9384-27.31144.14168,21.18335,21.5507,39.44231,41.42694,34.54226ZM40.02587,101.7842c-6.48837-13.82954-12.73125-27.39176-19.23097-40.82974-1.88814-3.90368-6.335-5.17258-9.78506-3.17804-3.63293,2.10026-5.03384,5.32702-3.37028,9.33702,1.71995,4.1459,3.69744,8.1862,5.60337,12.25343,4.42768,9.44865,8.8801,18.88571,13.4783,28.65863,4.5974-2.15668,8.75983-4.1093,13.30464-6.2413ZM211.18055,80.79417c-14.77713-9.40671-38.50378-2.87498-44.49857,11.95316,6.63644-1.21619,13.43204-2.68694,20.30447-3.53656,1.42606-.17628,3.13702,1.95204,4.71671,3.01822-1.32031,1.22525-2.50784,2.66551-4.01141,3.59404-.88339.54552-2.30292.13463-3.42337.39925-5.90417,1.39438-11.78989,2.86684-17.68202,4.31223,19.00288,7.81949,38.90895-1.63116,44.59419-19.74033ZM53.59537,130.83381c-3.66351-7.80721-7.1394-15.21455-10.67697-22.75336-4.76431,2.26765-8.9213,4.24623-13.26549,6.31392,3.63062,7.73096,7.07182,15.05859,10.6373,22.65082,4.53917-2.11906,8.71072-4.06651,13.30516-6.21138Z" style="fill: #000; stroke-width: 0px;"/>
  </g>
</svg>