<svg width="30" height="35" viewBox="0 0 30 35" fill="none" xmlns="http://www.w3.org/2000/svg">
<path d="M30 14.1223C27.0509 14.1286 24.1743 13.2037 21.7768 11.4781V23.508C21.7761 25.7359 21.0984 27.9106 19.8342 29.7411C18.5701 31.5716 16.7798 32.9706 14.7029 33.7512C12.6259 34.5317 10.3612 34.6564 8.21179 34.1087C6.06233 33.5611 4.13056 32.367 2.67481 30.6864C1.21907 29.0057 0.308768 26.9185 0.0656481 24.704C-0.177472 22.4894 0.258183 20.2531 1.31435 18.294C2.37051 16.335 3.99683 14.7467 5.9758 13.7414C7.95477 12.7362 10.192 12.3621 12.3884 12.669V18.7176C11.3841 18.3999 10.3056 18.4092 9.3069 18.7441C8.30818 19.079 7.44031 19.7224 6.82721 20.5824C6.21411 21.4424 5.88712 22.475 5.89294 23.5328C5.89876 24.5907 6.23709 25.6196 6.85962 26.4727C7.48214 27.3259 8.35704 27.9596 9.35938 28.2834C10.3617 28.6071 11.4403 28.6045 12.441 28.2757C13.4417 27.9469 14.3135 27.3089 14.9318 26.4526C15.5501 25.5964 15.8833 24.5658 15.8839 23.508V0H21.7768C21.7735 0.500748 21.8161 1.00074 21.904 1.49364C22.109 2.59234 22.5347 3.63751 23.1553 4.56527C23.7759 5.49304 24.5783 6.28392 25.5134 6.88957C26.8445 7.77286 28.4048 8.24317 30 8.24191V14.1223Z" fill="#5B6858"/>
</svg>
