<?xml version="1.0" encoding="UTF-8"?>
<svg id="Camada_2" data-name="Camada 2" xmlns="http://www.w3.org/2000/svg" viewBox="0 0 224.46793 216.7525">
  <g id="Camada_1-2" data-name="Camada 1">
    <g>
      <path d="M112.09914,216.71441c-28.4951-.00089-56.99025.02309-85.48523-.03651-2.97485-.00621-6.05241-.10815-8.90432-.84995C7.42192,213.15214.4735,204.22703.04813,193.58949c-.05323-1.33136-.04384-2.66566-.04388-3.99861C.00229,135.43352-.01774,81.27613.05019,27.11885c.00433-3.45972.20538-7.05907,1.15491-10.35118C3.92141,7.35008,12.39074.82944,22.15387.13582,23.97966.0061,25.81717.00598,27.64928.00578,84.13958-.0004,140.62987-.01098,197.12012.03262c3.14581.00243,6.39325.04545,9.4183.78542,10.24255,2.50547,17.36789,11.4996,17.86615,22.0802.07047,1.49701.06042,2.99855.06052,4.498.0025,53.9907.0116,107.9814-.02493,161.97209-.00201,2.98351.00049,6.05563-.66119,8.93433-2.49805,10.86862-11.73651,18.2364-23.1955,18.3586-15.82886.16879-31.66077.05121-47.49136.0536-13.66432.00206-27.32864.00043-40.99297-.00046ZM173.55822,38.28776c-6.10883,8.15432-14.15948,12.70715-24.3457,12.75043-24.65808.10479-49.31718.09971-73.97531.00016-9.15991-.03698-16.79895-3.67571-22.75833-10.70719-.63387-.7479-1.31583-1.45503-1.68204-1.85812H5.40661c0,1.46282,0,2.44189,0,3.42096-.00034,49.81697-.03069,99.63396.02023,149.45088.01258,12.30486,7.71681,19.91837,20.03964,19.92471,57.81432.02972,115.62866.01743,173.44301-.00542,1.82019-.00072,3.68671-.07112,5.45261-.46411,9.24692-2.05789,14.63657-9.35638,14.64252-19.91431.0278-49.31711.01633-98.63426.00436-147.95139-.00037-1.45626-.16187-2.91248-.26474-4.64661h-45.18602ZM218.84693,32.19375c0-3.68968.27368-6.85501-.05228-9.95733-.90817-8.64365-7.16742-15.18243-15.59839-16.51733-1.63226-.25843-3.32013-.22618-4.98233-.22649-57.2937-.01049-114.5874-.00902-171.8811-.00695-1.16561.00004-2.33556-.03249-3.49613.0516-8.38073.60722-15.22086,6.32672-16.79027,14.60326-.72447,3.82063-.51842,7.81769-.74734,11.97192h41.94897c-.40493-3.38417-1.02042-6.50956-1.01221-9.63332.00262-.99638,1.66066-1.98841,2.56124-2.98243.86373.86742,1.83656,1.6562,2.54334,2.63674.33357.46276.12096,1.2985.2169,1.95633,1.94406,13.32783,11.0518,21.28502,24.59822,21.31347,23.98329.05037,47.96681.03195,71.95012-.01412,2.31253-.00444,4.71935-.06511,6.9203-.67989,10.61867-2.96609,16.46631-10.12773,17.80829-21.01119.25114-2.0368.30609-4.42367,3.11664-4.08052,2.69882.32951,2.50356,2.75119,2.28514,4.74896-.28027,2.56387-.76772,5.10509-1.19263,7.82728h41.8035Z" style="fill: #000; stroke-width: 0px;"/>
      <path d="M136.84346,160.52971c4.96234,13.96144-2.07156,22.61809-21.62602,26.72374v9.86865h52.09532v-9.99852c-18.78223-3.54504-26.10341-12.68842-21.07407-26.49879,7.40021-1.33293,14.36429-.19481,20.71227,4.40378,1.19646-.69844,2.4146-1.96877,3.61523-1.95245,1.19049.01617,2.36339,1.32857,3.74226,2.1974,6.05174-4.70638,13.19972-5.95871,20.8607-4.74352,5.74689,13.40807-1.98099,22.97783-21.56938,26.66393v9.30898c10.22957,3.29659,18.87386-1.57683,20.89226-11.84959.12842-.65352.01132-1.51534.39127-1.92639.81592-.88274,1.98486-2.22165,2.81818-2.09694.92694.13873,1.82303,1.6024,2.38007,2.67274.33093.63589.04401,1.63408-.07037,2.4547-1.23483,8.86151-8.33551,15.85815-17.24908,16.90123-2.14325.25081-4.323.26062-6.48601.26134-42.65749.01414-85.31496.01726-127.97243-.0063-2.49282-.00137-5.01922-.03317-7.47219-.41862-8.69885-1.36699-15.83938-9.30913-16.26301-17.85281-.09856-1.9877.19997-4.09367,2.52079-4.00127,1.04536.04161,2.61941,1.89215,2.92088,3.16629,2.64945,11.19748,8.41216,14.96242,20.75444,13.02643v-9.60132c-19.34033-4.03815-26.6839-13.16547-21.3776-26.65825,7.4385-1.25082,14.43707-.11841,21.04071,4.73439,2.01936-2.95392,4.27033-3.43861,6.56544.13667,6.47375-4.72482,13.68494-6.29979,21.46317-4.83713,5.01212,14.31143-2.64427,23.64973-21.68031,26.43416v9.98289h52.13655v-10.04399c-1.72667-.217-3.50589-.39079-5.2684-.67004-13.33148-2.11211-20.43925-13.3701-16.09056-25.45786,7.68303-1.69647,13.37234-.57085,21.14293,4.32057,2.2153-2.90659,4.67273-3.29343,6.80185.32304,6.4521-4.92868,13.46771-6.11417,21.34514-4.96713ZM50.34976,180.75487c1.50851-9.1479-5.88326-15.75755-16.53852-14.78862-1.52619,9.09862,5.97675,15.80769,16.53852,14.78862ZM190.70853,165.74408c-11.46304-.1181-18.44475,6.33786-16.63609,15.09308,10.71971.75844,17.85069-5.54729,16.63609-15.09308ZM108.86199,180.88196c.94263-9.82295-6.8497-16.46185-16.81979-14.7103-.98689,9.1058,5.78465,15.14326,16.81979,14.7103ZM56.91442,180.80018c11.17758.81915,18.46622-5.76826,16.767-14.84795-10.39069-.84138-17.36504,5.1824-16.767,14.84795ZM132.38326,165.82145c-11.44701-.41403-18.61171,6.23096-16.54045,15.06241,10.72966.47879,17.51138-5.5327,16.54045-15.06241ZM150.43434,165.96805c-.58699,9.6918,6.22617,15.61835,16.65544,14.83192,1.66893-9.11278-5.57755-15.70828-16.65544-14.83192Z" style="fill: #000; stroke-width: 0px;"/>
      <path d="M108.64017,112.54144c1.01619-.78014,2.0303-1.56303,3.36787-2.59561,1.19572.94482,2.30296,1.81973,3.62373,2.86337,6.15918-4.59721,13.22768-6.13031,20.79517-5.01431,3.21689,6.57971,2.17325,13.85913-2.57272,19.2142-3.42145,3.86057-6.14096,5.01462-18.6584,7.85808v9.62285h52.17586v-9.66283c-19.12498-4.16808-25.82858-12.45132-21.1907-26.8244,7.50018-1.35709,14.53973.12558,20.85217,4.55641,1.33815-.78075,2.52043-1.97807,3.74988-2.02864.99852-.04108,2.05362,1.29384,2.99324,1.9549,3.23373-1.33765,6.60378-3.22597,10.21852-4.08784,3.6109-.86095,7.46674-.69444,10.92889-.9567,5.89835,14.13591-1.69199,23.52032-21.34662,27.38155v9.94014c5.25829.42448,10.39102.66754,15.12753-2.59105,4.71542-3.24408,5.65103-8.35374,6.45569-13.28442,4.34045-.97125,5.20044-.30154,4.9614,3.48634-.57397,9.09572-8.48019,17.02962-17.92899,17.95816-1.15747.11375-2.32977.10507-3.49519.10518-44.31352.00432-88.62706-.01642-132.94055.02771-5.3875.00537-10.19958-1.38162-14.30848-4.8968-4.1237-3.52785-6.31632-8.08627-6.85837-13.44933-.20052-1.9839.1774-4.08739,2.56567-3.87799,1.07124.09396,2.57413,1.92349,2.8663,3.19807,2.49404,10.87958,9.30051,15.24942,20.7981,12.87665.07062-.71773.20573-1.51128.21616-2.30646.03035-2.31314.01076-4.62694.01076-7.24818-2.79589-.49327-5.39645-.81676-7.9296-1.4223-11.23808-2.68649-18.26435-13.08717-13.80691-25.36183,7.43737-1.35628,14.45683.12492,20.86671,4.59152,1.23109-.75916,2.37579-1.97575,3.59736-2.05858.99779-.06767,2.08737,1.2184,3.52094,2.15581,6.14888-4.29205,13.39772-6.25142,21.29413-4.6517,4.43063,14.97408-2.27715,23.05249-21.90381,26.7406v9.75334h52.32822v-9.81435c-2.34958-.42065-4.77078-.76146-7.14864-1.29546-12.19902-2.73946-18.28252-13.28725-14.40575-24.89925,6.60455-2.11711,13.05556-.8864,21.18042,4.04315ZM91.92301,113.61137c-.41437,9.81729,7.13655,16.03569,16.91025,14.25905,1.03879-9.2683-6.06821-15.39752-16.91025-14.25905ZM132.45121,113.54971c-11.11165-.955-18.54987,5.69472-16.64484,14.56465,10.37282.946,17.32603-4.99318,16.64484-14.56465ZM56.73232,127.90388c10.79234,1.69806,19.23378-5.78941,16.73564-14.50458-10.56648-.38705-16.64655,4.7702-16.73564,14.50458ZM50.39173,127.96812c1.29955-9.33098-6.88208-16.20885-16.78972-14.11426-.75771,9.29106,6.75204,15.60413,16.78972,14.11426ZM173.75051,128.106c11.09657.99028,18.61971-5.68367,16.79704-14.5697-10.44086-.91583-17.34435,4.93666-16.79704,14.5697ZM167.37842,128.07631c.63556-9.78854-6.50224-15.81973-16.69383-14.37874-2.95399,8.06667,7.90782,16.37305,16.69383,14.37874Z" style="fill: #000; stroke-width: 0px;"/>
      <path d="M78.53569,55.41643c4.5885,14.81878-2.36159,23.19414-21.88828,26.66459-.07291,1.53859-.17969,3.15871-.21808,4.78044-.03841,1.62228-.00842,3.24617-.00842,5.15294h52.55191v-10.18155c-8.48734-.64424-16.28172-2.73428-20.67308-10.82072-2.66957-4.91587-2.93556-10.10422-.76526-15.50079,7.64095-1.24906,14.66034-.20422,20.96715,4.48363,1.18414-.80846,2.3476-1.60277,3.67226-2.50716,1.27786.97923,2.41168,1.84807,3.57085,2.73633,6.3576-4.94046,13.53778-5.90882,21.10185-4.80133,4.97839,14.16106-3.36462,24.45241-21.45943,26.39354v10.21805h51.93513v-10.04259c-18.55072-3.20624-26.06781-12.55011-21.10173-26.46261,7.5795-1.39326,14.68575-.10119,20.98436,4.54755,1.17303-.90807,2.17728-1.68548,3.42525-2.65156,1.2399.97136,2.34686,1.83858,3.56781,2.79509,6.29268-4.756,13.42232-6.04734,21.05479-4.7497,5.42715,13.92763-3.00714,24.29523-21.53516,26.36623v9.70804c10.77802,2.94942,18.43863-1.63278,20.85135-12.63118.41702-1.90097.8385-3.87666,3.29672-3.45243,2.32996.40211,2.38791,2.42719,2.25903,4.35371-.58435,8.7352-8.1405,16.63031-17.02768,17.70848-1.6481.19997-3.32584.21553-4.98988.21594-43.83296.01109-87.66602-.03159-131.49882.0533-6.48877.01257-12.18417-1.49178-16.72523-6.33505-3.20132-3.41436-5.04366-7.50251-5.19785-12.12997-.04282-1.28503,1.09985-3.35764,2.18859-3.76753,1.92287-.72392,2.77368,1.0601,3.21467,2.83905,2.89678,11.68568,7.47137,14.75713,20.5835,13.58881v-10.12125c-8.33685-.69892-16.32742-2.6463-20.79749-10.97684-2.42722-4.52341-2.63488-9.32761-.63297-15.32233,7.54626-1.46576,14.62635-.17483,20.99844,4.46336,1.0897-.82668,2.08642-1.58282,3.41137-2.58795,1.18089.90887,2.29234,1.7643,3.61313,2.78086,6.14925-4.72845,13.3196-5.93832,21.27118-4.80742ZM57.06382,75.8277c11.59315.26388,18.67763-6.34496,16.48239-15.09283-10.75089-.45328-17.58505,5.63982-16.48239,15.09283ZM33.66533,60.73653c-.99148,9.70319,6.93964,16.47923,16.82418,14.73238,1.04693-9.17319-5.60492-15.11917-16.82418-14.73238ZM108.79677,75.86928c1.13144-9.76733-6.53339-16.38296-16.71344-14.82766-1.12733,9.05698,5.4252,14.97514,16.71344,14.82766ZM132.47603,60.87776c-10.94191-.98734-18.39697,5.70952-16.75624,14.78411,8.62296,1.47665,18.60609-5.5379,16.75624-14.78411ZM190.67874,60.91812c-10.65515-1.17397-18.67647,6.04836-16.53871,14.89132,11.06105.37927,17.92329-5.79944,16.53871-14.89132ZM150.4885,60.83301c-.75191,9.66941,5.86336,15.50352,16.5385,14.93378,1.90376-8.99043-5.29512-15.63293-16.5385-14.93378Z" style="fill: #000; stroke-width: 0px;"/>
    </g>
  </g>
</svg>